<?xml version="1.0" encoding="utf-8"?>
<!-- Svg Vector Icons : http://www.onlinewebfonts.com/icon -->
<!DOCTYPE svg PUBLIC "-//W3C//DTD SVG 1.1//EN" "http://www.w3.org/Graphics/SVG/1.1/DTD/svg11.dtd">
<svg version="1.1" xmlns="http://www.w3.org/2000/svg" xmlns:xlink="http://www.w3.org/1999/xlink" x="0px" y="0px" viewBox="0 0 1000 1000" enable-background="new 0 0 1000 1000" xml:space="preserve">
<metadata> Svg Vector Icons : http://www.onlinewebfonts.com/icon </metadata>
<g><g transform="translate(0.000000,331.000000) scale(0.100000,-0.100000)"><path d="M2831.9,1344.1c-484.9-51.7-1008-245.3-1427.7-528.9c-235.7-161-619-546.2-774.2-780C386.5-329,214-750.6,137.4-1162.6c-49.8-266.4-49.8-787.7,0-1054c262.6-1420.1,1445-2451.1,2880.4-2514.4c651.6-28.7,1318.5,161,1841.7,523.2c67.1,46,128.4,84.3,138,84.3c9.6,0,70.9-38.3,138-84.3c523.2-362.2,1190.1-551.9,1841.7-523.2c2031.4,90.1,3405.5,2083.2,2763.5,4011.1C9558.6-173.7,9206,330.3,8744.1,700.2c-362.2,289.4-833.7,505.9-1318.5,603.7c-304.7,61.3-870.1,61.3-1157.5,0c-406.3-88.2-787.7-245.3-1098.1-452.3c-88.2-59.4-166.8-107.3-174.4-107.3c-9.6,0-72.8,38.3-139.9,84.3c-506,346.9-1117.3,532.8-1726.7,525.1C3002.5,1351.8,2868.3,1347.9,2831.9,1344.1z M3751.8,1026c329.6-78.6,676.5-226.2,939.1-402.5c47.9-32.6,88.2-59.4,90.1-61.3c3.8-1.9-36.4-46-86.2-97.7C4261.6,14.1,3993.3-488,3864.9-1087.9c-40.3-180.1-46-262.5-46-601.8c0-333.5,5.7-423.5,44.1-597.9c116.9-555.8,356.5-1023.4,747.4-1464.2l172.5-193.6l-157.1-97.7c-816.4-513.6-1860.9-567.3-2715.6-139.9C1133.9-3793.9,605-3109.7,411.4-2245.4c-59.4,264.5-59.4,847.1,0,1111.5C666.3,6.4,1528.7,843.9,2659.4,1050.9C2950.7,1104.5,3466.2,1093,3751.8,1026z M7320.2,1052.8C8464.3,855.4,9344-5.1,9591.2-1172.2c47.9-230,47.9-804.9,0-1034.9c-237.6-1125-1063.6-1964.3-2165.6-2205.8c-279.8-61.3-730.2-70.9-1019.6-21.1c-385.2,67.1-768.5,212.7-1069.4,410.1l-128.4,84.3l49.8,47.9c95.8,88.2,341.1,392.9,440.8,544.3c207,318.1,348.8,666.9,433.1,1055.9c38.3,180.2,44.1,262.6,44.1,601.8s-5.7,421.6-44.1,601.8c-84.3,389.1-226.2,737.8-433.1,1056c-109.2,168.6-368,484.9-446.5,546.2c-26.8,21.1-46,42.2-42.2,46c30.7,28.7,297,189.7,391,235.7c251,126.5,642,245.3,919.9,279.8C6703.1,1098.8,7117.1,1087.3,7320.2,1052.8z M5170,213.4c346.9-369.9,590.3-839.4,701.4-1347.3c55.6-247.2,49.8-900.7-7.7-1142.2c-124.6-523.2-356.5-962-701.4-1322.3L4997.5-3769l-161,166.7c-266.4,276-479.1,624.7-611.4,1004.2c-116.9,335.4-138,469.5-138,898.8c0,431.2,15.3,534.7,124.6,872c86.2,262.6,184,465.7,341.1,701.4c109.2,161,410.1,506,444.6,506C5007.1,380.1,5083.7,305.4,5170,213.4z"/></g></g>
</svg>