<?xml version="1.0" encoding="UTF-8" standalone="no"?>
<!-- Svg Vector Icons : http://www.onlinewebfonts.com/icon -->

<svg
   xmlns:dc="http://purl.org/dc/elements/1.1/"
   xmlns:cc="http://creativecommons.org/ns#"
   xmlns:rdf="http://www.w3.org/1999/02/22-rdf-syntax-ns#"
   xmlns:svg="http://www.w3.org/2000/svg"
   xmlns="http://www.w3.org/2000/svg"
   xmlns:sodipodi="http://sodipodi.sourceforge.net/DTD/sodipodi-0.dtd"
   xmlns:inkscape="http://www.inkscape.org/namespaces/inkscape"
   version="1.1"
   x="0px"
   y="0px"
   viewBox="0 0 1000 1000"
   enable-background="new 0 0 1000 1000"
   xml:space="preserve"
   id="svg16"
   sodipodi:docname="no_network.svg"
   inkscape:version="0.92.3 (2405546, 2018-03-11)"><defs
   id="defs20" /><sodipodi:namedview
   pagecolor="#ffffff"
   bordercolor="#666666"
   borderopacity="1"
   objecttolerance="10"
   gridtolerance="10"
   guidetolerance="10"
   inkscape:pageopacity="0"
   inkscape:pageshadow="2"
   inkscape:window-width="1366"
   inkscape:window-height="719"
   id="namedview18"
   showgrid="false"
   inkscape:zoom="0.236"
   inkscape:cx="-2.1186441"
   inkscape:cy="500"
   inkscape:window-x="0"
   inkscape:window-y="0"
   inkscape:window-maximized="1"
   inkscape:current-layer="svg16" />
<metadata
   id="metadata2"> Svg Vector Icons : http://www.onlinewebfonts.com/icon <rdf:RDF><cc:Work
     rdf:about=""><dc:format>image/svg+xml</dc:format><dc:type
       rdf:resource="http://purl.org/dc/dcmitype/StillImage" /></cc:Work></rdf:RDF></metadata>
<g
   id="g14"
   style="fill:#f9f9f9"><g
     transform="translate(0.000000,511.000000) scale(0.100000,-0.100000)"
     id="g12"
     style="fill:#f9f9f9"><path
       d="M3975.6,3979.7c-936.1-67.1-1870.2-387.5-2660.5-913c-339.5-224.4-600.4-437.3-909.2-744.3c-310.7-306.9-335.7-345.3-285.8-462.3c32.6-80.6,97.8-122.8,191.8-122.8c72.9,0,88.2,11.5,259,184.1c905.4,915,1922,1440.6,3136.2,1622.8c234,34.5,1110.6,34.5,1342.7,0c805.6-120.8,1521.1-391.3,2171.4-821c308.8-203.3,565.9-416.2,882.4-723.1c259-253.2,274.3-264.7,351-266.6c140-1.9,239.8,136.2,191.8,264.7c-11.5,30.7-109.3,143.9-216.7,253.2c-1032,1045.4-2280.7,1630.5-3696.3,1730.2C4420.6,4002.7,4305.6,4002.7,3975.6,3979.7z"
       id="path4"
       style="fill:#f9f9f9" /><path
       d="M3879.7,2330.1c-821-103.6-1609.4-458.4-2263.5-1018.6c-283.9-243.6-445-420.1-460.4-502.6c-28.8-153.5,145.8-293.5,280.1-222.5c19.2,11.5,117,99.7,212.9,197.6c997.5,997.5,2351.7,1379.2,3681,1039.7c539-138.1,1032-397.1,1513.4-796c241.7-199.5,379.8-341.4,343.4-352.9c-15.4-3.8-103.6-30.7-199.5-59.5c-212.9-63.3-493-207.2-669.5-339.5c-72.9-55.6-145.8-111.3-163-124.7c-24.9-19.2-51.8-5.8-153.4,71c-257,193.7-646.4,362.5-1024.3,445c-163,34.5-257,42.2-560.1,42.2c-393.2,0-573.5-26.8-903.5-132.3c-222.5-71-587-259-784.5-400.9c-197.6-143.9-483.4-418.2-512.2-489.1c-48-128.5,55.6-270.5,197.6-270.5c71,0,92.1,13.4,264.7,180.3C2889.9-201.9,3091.3-58,3333,60.9c613.8,303.1,1344.6,333.8,1973.8,82.5c147.7-59.5,389.4-195.7,489.1-276.2l55.6-44.1l-71-107.4c-519.8-782.6-494.9-1826.1,59.5-2574.2c654.1-878.5,1824.2-1168.2,2796.7-688.6c1413.7,694.4,1699.5,2570.4,558.2,3650.3c-397.1,374.1-974.4,615.8-1482.8,617.7c-95.9,0-101.7,1.9-101.7,48c0,84.4-47.9,149.6-268.5,360.6c-222.5,214.8-542.8,464.2-786.4,613.8C6066.4,2042.4,5437.3,2261,4848.4,2332C4656.6,2355,4071.5,2353.1,3879.7,2330.1z M8030.7,270c631.1-134.3,1150.9-590.8,1356.1-1193.1c84.4-251.3,111.3-429.7,97.8-696.3c-11.5-260.9-59.5-454.6-163-679c-234-496.8-631.1-838.3-1168.2-1003.2c-153.4-46-197.6-51.8-485.3-51.8c-356.8-1.9-516,28.8-780.7,151.5c-280,128.5-581.2,381.7-751.9,631.1c-101.7,147.7-228.3,431.6-272.4,617.7c-63.3,249.4-59.5,619.6,7.7,870.8c88.3,337.6,239.8,604.2,481.5,847.8C6787.7,206.7,7426.4,398.5,8030.7,270z"
       id="path6"
       style="fill:#f9f9f9" /><path
       d="M6716.7-1366.2c-105.5-84.4-113.2-209.1-19.2-303.1l65.2-65.2h880.5c836.3,0,882.4,1.9,939.9,38.4c78.6,47.9,111.3,151.5,74.8,239.8c-53.7,128.5-21.1,124.7-1009,124.7C6833.7-1331.7,6753.1-1335.6,6716.7-1366.2z"
       id="path8"
       style="fill:#f9f9f9" /><path
       d="M4196.2-930.8c-163-26.9-400.9-153.5-533.2-283.9c-153.5-151.5-264.7-372.1-295.4-588.9c-44.1-310.8,63.3-621.5,293.5-853.6c318.4-322.3,798-395.2,1193.1-184.2c416.3,220.6,629.2,694.4,516,1141.3c-78.6,308.8-260.9,535.2-544.8,673.3C4606.7-919.3,4432.1-892.5,4196.2-930.8z M4577.9-1360.5c349.1-122.8,510.2-514.1,349.1-844c-228.3-464.2-867-458.4-1104.9,9.6c-51.8,99.8-61.4,333.8-19.2,462.3c44.1,132.3,228.3,322.2,354.9,368.3C4267.2-1326,4476.3-1324.1,4577.9-1360.5z"
       id="path10"
       style="fill:#f9f9f9" /></g></g>
</svg>